<mxfile host="app.diagrams.net" modified="2024-07-10T17:49:49.176Z" agent="Mozilla/5.0 (Windows NT 10.0; Win64; x64) AppleWebKit/537.36 (KHTML, like Gecko) Chrome/126.0.0.0 Safari/537.36" etag="obdiIW2SLPvc_ad1iAE6" version="24.6.4" type="device">
  <diagram name="Seite-1" id="l-W4GeXmFxhR421y2qrF">
    <mxGraphModel dx="1489" dy="1491" grid="1" gridSize="10" guides="1" tooltips="1" connect="1" arrows="1" fold="1" page="1" pageScale="1" pageWidth="827" pageHeight="1169" math="0" shadow="0">
      <root>
        <mxCell id="0" />
        <mxCell id="1" parent="0" />
        <mxCell id="sVRfK4EXUM372jccoe2K-32" value="User" style="swimlane;fontStyle=0;childLayout=stackLayout;horizontal=1;startSize=30;horizontalStack=0;resizeParent=1;resizeParentMax=0;resizeLast=0;collapsible=1;marginBottom=0;whiteSpace=wrap;html=1;" vertex="1" parent="1">
          <mxGeometry x="310" y="260" width="150" height="210" as="geometry" />
        </mxCell>
        <mxCell id="sVRfK4EXUM372jccoe2K-33" value="userId: Long" style="text;strokeColor=none;fillColor=none;align=left;verticalAlign=middle;spacingLeft=4;spacingRight=4;overflow=hidden;points=[[0,0.5],[1,0.5]];portConstraint=eastwest;rotatable=0;whiteSpace=wrap;html=1;" vertex="1" parent="sVRfK4EXUM372jccoe2K-32">
          <mxGeometry y="30" width="150" height="30" as="geometry" />
        </mxCell>
        <mxCell id="sVRfK4EXUM372jccoe2K-34" value="vorname: String" style="text;strokeColor=none;fillColor=none;align=left;verticalAlign=middle;spacingLeft=4;spacingRight=4;overflow=hidden;points=[[0,0.5],[1,0.5]];portConstraint=eastwest;rotatable=0;whiteSpace=wrap;html=1;" vertex="1" parent="sVRfK4EXUM372jccoe2K-32">
          <mxGeometry y="60" width="150" height="30" as="geometry" />
        </mxCell>
        <mxCell id="sVRfK4EXUM372jccoe2K-35" value="nachname: String" style="text;strokeColor=none;fillColor=none;align=left;verticalAlign=middle;spacingLeft=4;spacingRight=4;overflow=hidden;points=[[0,0.5],[1,0.5]];portConstraint=eastwest;rotatable=0;whiteSpace=wrap;html=1;" vertex="1" parent="sVRfK4EXUM372jccoe2K-32">
          <mxGeometry y="90" width="150" height="30" as="geometry" />
        </mxCell>
        <mxCell id="sVRfK4EXUM372jccoe2K-37" value="&amp;nbsp;email: String" style="text;html=1;align=left;verticalAlign=middle;whiteSpace=wrap;rounded=0;" vertex="1" parent="sVRfK4EXUM372jccoe2K-32">
          <mxGeometry y="120" width="150" height="30" as="geometry" />
        </mxCell>
        <mxCell id="sVRfK4EXUM372jccoe2K-38" value="&amp;nbsp;password: String" style="text;html=1;align=left;verticalAlign=middle;whiteSpace=wrap;rounded=0;" vertex="1" parent="sVRfK4EXUM372jccoe2K-32">
          <mxGeometry y="150" width="150" height="30" as="geometry" />
        </mxCell>
        <mxCell id="sVRfK4EXUM372jccoe2K-46" value="&amp;nbsp;rollenId: Long" style="text;html=1;align=left;verticalAlign=middle;whiteSpace=wrap;rounded=0;" vertex="1" parent="sVRfK4EXUM372jccoe2K-32">
          <mxGeometry y="180" width="150" height="30" as="geometry" />
        </mxCell>
        <mxCell id="sVRfK4EXUM372jccoe2K-39" value="Rolle" style="swimlane;fontStyle=0;childLayout=stackLayout;horizontal=1;startSize=30;horizontalStack=0;resizeParent=1;resizeParentMax=0;resizeLast=0;collapsible=1;marginBottom=0;whiteSpace=wrap;html=1;" vertex="1" parent="1">
          <mxGeometry x="590" y="260" width="150" height="90" as="geometry" />
        </mxCell>
        <mxCell id="sVRfK4EXUM372jccoe2K-40" value="rolleId: Long" style="text;strokeColor=none;fillColor=none;align=left;verticalAlign=middle;spacingLeft=4;spacingRight=4;overflow=hidden;points=[[0,0.5],[1,0.5]];portConstraint=eastwest;rotatable=0;whiteSpace=wrap;html=1;" vertex="1" parent="sVRfK4EXUM372jccoe2K-39">
          <mxGeometry y="30" width="150" height="30" as="geometry" />
        </mxCell>
        <mxCell id="sVRfK4EXUM372jccoe2K-41" value="rollenName: String" style="text;strokeColor=none;fillColor=none;align=left;verticalAlign=middle;spacingLeft=4;spacingRight=4;overflow=hidden;points=[[0,0.5],[1,0.5]];portConstraint=eastwest;rotatable=0;whiteSpace=wrap;html=1;" vertex="1" parent="sVRfK4EXUM372jccoe2K-39">
          <mxGeometry y="60" width="150" height="30" as="geometry" />
        </mxCell>
        <mxCell id="sVRfK4EXUM372jccoe2K-45" value="" style="endArrow=classic;startArrow=classic;html=1;rounded=0;entryX=0;entryY=0.5;entryDx=0;entryDy=0;exitX=1;exitY=0.5;exitDx=0;exitDy=0;" edge="1" parent="1" source="sVRfK4EXUM372jccoe2K-34" target="sVRfK4EXUM372jccoe2K-41">
          <mxGeometry width="50" height="50" relative="1" as="geometry">
            <mxPoint x="440" y="390" as="sourcePoint" />
            <mxPoint x="490" y="340" as="targetPoint" />
          </mxGeometry>
        </mxCell>
        <mxCell id="sVRfK4EXUM372jccoe2K-68" value="0...*" style="edgeLabel;html=1;align=center;verticalAlign=middle;resizable=0;points=[];" vertex="1" connectable="0" parent="sVRfK4EXUM372jccoe2K-45">
          <mxGeometry x="-0.7692" y="-2" relative="1" as="geometry">
            <mxPoint y="-17" as="offset" />
          </mxGeometry>
        </mxCell>
        <mxCell id="sVRfK4EXUM372jccoe2K-47" value="Buchung" style="swimlane;fontStyle=0;childLayout=stackLayout;horizontal=1;startSize=30;horizontalStack=0;resizeParent=1;resizeParentMax=0;resizeLast=0;collapsible=1;marginBottom=0;whiteSpace=wrap;html=1;" vertex="1" parent="1">
          <mxGeometry x="300" y="535" width="150" height="150" as="geometry" />
        </mxCell>
        <mxCell id="sVRfK4EXUM372jccoe2K-48" value="buchungId: Long" style="text;strokeColor=none;fillColor=none;align=left;verticalAlign=middle;spacingLeft=4;spacingRight=4;overflow=hidden;points=[[0,0.5],[1,0.5]];portConstraint=eastwest;rotatable=0;whiteSpace=wrap;html=1;" vertex="1" parent="sVRfK4EXUM372jccoe2K-47">
          <mxGeometry y="30" width="150" height="30" as="geometry" />
        </mxCell>
        <mxCell id="sVRfK4EXUM372jccoe2K-49" value="datum: date" style="text;strokeColor=none;fillColor=none;align=left;verticalAlign=middle;spacingLeft=4;spacingRight=4;overflow=hidden;points=[[0,0.5],[1,0.5]];portConstraint=eastwest;rotatable=0;whiteSpace=wrap;html=1;" vertex="1" parent="sVRfK4EXUM372jccoe2K-47">
          <mxGeometry y="60" width="150" height="30" as="geometry" />
        </mxCell>
        <mxCell id="sVRfK4EXUM372jccoe2K-51" value="&amp;nbsp;status: status" style="text;html=1;align=left;verticalAlign=middle;whiteSpace=wrap;rounded=0;" vertex="1" parent="sVRfK4EXUM372jccoe2K-47">
          <mxGeometry y="90" width="150" height="30" as="geometry" />
        </mxCell>
        <mxCell id="sVRfK4EXUM372jccoe2K-52" value="&amp;nbsp;mietZeit: MietZeit&amp;lt;enum&amp;gt;" style="text;html=1;align=left;verticalAlign=middle;whiteSpace=wrap;rounded=0;" vertex="1" parent="sVRfK4EXUM372jccoe2K-47">
          <mxGeometry y="120" width="150" height="30" as="geometry" />
        </mxCell>
        <mxCell id="sVRfK4EXUM372jccoe2K-53" value="Status" style="swimlane;fontStyle=0;childLayout=stackLayout;horizontal=1;startSize=30;horizontalStack=0;resizeParent=1;resizeParentMax=0;resizeLast=0;collapsible=1;marginBottom=0;whiteSpace=wrap;html=1;" vertex="1" parent="1">
          <mxGeometry x="540" y="560" width="170" height="120" as="geometry" />
        </mxCell>
        <mxCell id="sVRfK4EXUM372jccoe2K-54" value="statusId: Long" style="text;strokeColor=none;fillColor=none;align=left;verticalAlign=middle;spacingLeft=4;spacingRight=4;overflow=hidden;points=[[0,0.5],[1,0.5]];portConstraint=eastwest;rotatable=0;whiteSpace=wrap;html=1;" vertex="1" parent="sVRfK4EXUM372jccoe2K-53">
          <mxGeometry y="30" width="170" height="30" as="geometry" />
        </mxCell>
        <mxCell id="sVRfK4EXUM372jccoe2K-56" value="&amp;nbsp;bezahlt: boolean" style="text;html=1;align=left;verticalAlign=middle;whiteSpace=wrap;rounded=0;" vertex="1" parent="sVRfK4EXUM372jccoe2K-53">
          <mxGeometry y="60" width="170" height="30" as="geometry" />
        </mxCell>
        <mxCell id="sVRfK4EXUM372jccoe2K-57" value="erf端llung: Erf端llung&amp;lt;enum&amp;gt;" style="text;html=1;align=left;verticalAlign=middle;whiteSpace=wrap;rounded=0;" vertex="1" parent="sVRfK4EXUM372jccoe2K-53">
          <mxGeometry y="90" width="170" height="30" as="geometry" />
        </mxCell>
        <mxCell id="sVRfK4EXUM372jccoe2K-62" value="&lt;p style=&quot;margin:0px;margin-top:4px;text-align:center;&quot;&gt;&lt;i&gt;&amp;lt;&amp;lt;enum&amp;gt;&amp;gt;&lt;/i&gt;&lt;br&gt;&lt;b&gt;MietZeit&lt;/b&gt;&lt;/p&gt;&lt;hr size=&quot;1&quot; style=&quot;border-style:solid;&quot;&gt;&lt;p style=&quot;margin:0px;margin-left:4px;&quot;&gt;morgen,&lt;/p&gt;&lt;p style=&quot;margin:0px;margin-left:4px;&quot;&gt;nachmittag,&lt;/p&gt;&lt;p style=&quot;margin:0px;margin-left:4px;&quot;&gt;ganztag&lt;/p&gt;" style="verticalAlign=top;align=left;overflow=fill;html=1;whiteSpace=wrap;" vertex="1" parent="1">
          <mxGeometry x="60" y="560" width="190" height="100" as="geometry" />
        </mxCell>
        <mxCell id="sVRfK4EXUM372jccoe2K-64" value="&lt;p style=&quot;margin:0px;margin-top:4px;text-align:center;&quot;&gt;&lt;i&gt;&amp;lt;&amp;lt;enum&amp;gt;&amp;gt;&lt;/i&gt;&lt;/p&gt;&lt;p style=&quot;margin:0px;margin-top:4px;text-align:center;&quot;&gt;&lt;i&gt;&lt;b&gt;Erf端llung&lt;/b&gt;&lt;/i&gt;&lt;/p&gt;&lt;p style=&quot;margin:0px;margin-top:4px;text-align:center;&quot;&gt;&lt;i&gt;&lt;b&gt;&lt;br&gt;&lt;/b&gt;&lt;/i&gt;&lt;/p&gt;&lt;p style=&quot;margin:0px;margin-left:4px;&quot;&gt;null,&lt;/p&gt;&lt;p style=&quot;margin:0px;margin-left:4px;&quot;&gt;storniert,&lt;/p&gt;&lt;p style=&quot;margin:0px;margin-left:4px;&quot;&gt;erf端llt&lt;/p&gt;" style="verticalAlign=top;align=left;overflow=fill;html=1;whiteSpace=wrap;" vertex="1" parent="1">
          <mxGeometry x="790" y="580" width="190" height="100" as="geometry" />
        </mxCell>
        <mxCell id="sVRfK4EXUM372jccoe2K-71" value="1" style="edgeLabel;html=1;align=center;verticalAlign=middle;resizable=0;points=[];" vertex="1" connectable="0" parent="1">
          <mxGeometry x="514.0020408163265" y="339" as="geometry">
            <mxPoint x="64" y="-18" as="offset" />
          </mxGeometry>
        </mxCell>
        <mxCell id="sVRfK4EXUM372jccoe2K-73" value="" style="endArrow=classic;startArrow=classic;html=1;rounded=0;exitX=0.438;exitY=1.067;exitDx=0;exitDy=0;exitPerimeter=0;" edge="1" parent="1" source="sVRfK4EXUM372jccoe2K-46" target="sVRfK4EXUM372jccoe2K-47">
          <mxGeometry width="50" height="50" relative="1" as="geometry">
            <mxPoint x="470" y="345" as="sourcePoint" />
            <mxPoint x="600" y="345" as="targetPoint" />
          </mxGeometry>
        </mxCell>
        <mxCell id="sVRfK4EXUM372jccoe2K-74" value="1" style="edgeLabel;html=1;align=center;verticalAlign=middle;resizable=0;points=[];" vertex="1" connectable="0" parent="sVRfK4EXUM372jccoe2K-73">
          <mxGeometry x="-0.7692" y="-2" relative="1" as="geometry">
            <mxPoint x="26" y="1" as="offset" />
          </mxGeometry>
        </mxCell>
        <mxCell id="sVRfK4EXUM372jccoe2K-75" value="0..*" style="edgeLabel;html=1;align=center;verticalAlign=middle;resizable=0;points=[];" vertex="1" connectable="0" parent="1">
          <mxGeometry x="400.0031328887963" y="520.0024881655511" as="geometry" />
        </mxCell>
        <mxCell id="sVRfK4EXUM372jccoe2K-76" value="" style="endArrow=classic;startArrow=classic;html=1;rounded=0;exitX=0.021;exitY=1.271;exitDx=0;exitDy=0;exitPerimeter=0;entryX=1.002;entryY=0.13;entryDx=0;entryDy=0;entryPerimeter=0;" edge="1" parent="1" source="sVRfK4EXUM372jccoe2K-54" target="sVRfK4EXUM372jccoe2K-51">
          <mxGeometry width="50" height="50" relative="1" as="geometry">
            <mxPoint x="386" y="482" as="sourcePoint" />
            <mxPoint x="385" y="545" as="targetPoint" />
          </mxGeometry>
        </mxCell>
        <mxCell id="sVRfK4EXUM372jccoe2K-77" value="1" style="edgeLabel;html=1;align=center;verticalAlign=middle;resizable=0;points=[];" vertex="1" connectable="0" parent="sVRfK4EXUM372jccoe2K-76">
          <mxGeometry x="-0.7692" y="-2" relative="1" as="geometry">
            <mxPoint x="-73" y="-16" as="offset" />
          </mxGeometry>
        </mxCell>
        <mxCell id="sVRfK4EXUM372jccoe2K-78" value="1" style="edgeLabel;html=1;align=center;verticalAlign=middle;resizable=0;points=[];" vertex="1" connectable="0" parent="1">
          <mxGeometry x="469.64477018486014" y="625.0001261954799" as="geometry">
            <mxPoint x="58" y="-15" as="offset" />
          </mxGeometry>
        </mxCell>
        <mxCell id="sVRfK4EXUM372jccoe2K-80" value="" style="endArrow=classic;startArrow=classic;html=1;rounded=0;exitX=1;exitY=0.5;exitDx=0;exitDy=0;entryX=0;entryY=0.5;entryDx=0;entryDy=0;" edge="1" parent="1" source="sVRfK4EXUM372jccoe2K-62" target="sVRfK4EXUM372jccoe2K-47">
          <mxGeometry width="50" height="50" relative="1" as="geometry">
            <mxPoint x="386" y="482" as="sourcePoint" />
            <mxPoint x="385" y="545" as="targetPoint" />
          </mxGeometry>
        </mxCell>
        <mxCell id="sVRfK4EXUM372jccoe2K-81" value="1" style="edgeLabel;html=1;align=center;verticalAlign=middle;resizable=0;points=[];" vertex="1" connectable="0" parent="sVRfK4EXUM372jccoe2K-80">
          <mxGeometry x="-0.7692" y="-2" relative="1" as="geometry">
            <mxPoint x="4" y="-22" as="offset" />
          </mxGeometry>
        </mxCell>
        <mxCell id="sVRfK4EXUM372jccoe2K-82" value="1" style="edgeLabel;html=1;align=center;verticalAlign=middle;resizable=0;points=[];" vertex="1" connectable="0" parent="1">
          <mxGeometry x="290.0018181818181" y="590" as="geometry" />
        </mxCell>
        <mxCell id="sVRfK4EXUM372jccoe2K-83" value="" style="endArrow=classic;startArrow=classic;html=1;rounded=0;exitX=0.988;exitY=0.302;exitDx=0;exitDy=0;entryX=0.01;entryY=0.489;entryDx=0;entryDy=0;exitPerimeter=0;entryPerimeter=0;" edge="1" parent="1" source="sVRfK4EXUM372jccoe2K-56" target="sVRfK4EXUM372jccoe2K-64">
          <mxGeometry width="50" height="50" relative="1" as="geometry">
            <mxPoint x="730" y="629.52" as="sourcePoint" />
            <mxPoint x="780" y="629.52" as="targetPoint" />
          </mxGeometry>
        </mxCell>
        <mxCell id="sVRfK4EXUM372jccoe2K-84" value="1" style="edgeLabel;html=1;align=center;verticalAlign=middle;resizable=0;points=[];" vertex="1" connectable="0" parent="sVRfK4EXUM372jccoe2K-83">
          <mxGeometry x="-0.7692" y="-2" relative="1" as="geometry">
            <mxPoint x="4" y="-11" as="offset" />
          </mxGeometry>
        </mxCell>
        <mxCell id="sVRfK4EXUM372jccoe2K-85" value="1" style="edgeLabel;html=1;align=center;verticalAlign=middle;resizable=0;points=[];" vertex="1" connectable="0" parent="1">
          <mxGeometry x="780.0018181818182" y="620" as="geometry" />
        </mxCell>
        <mxCell id="sVRfK4EXUM372jccoe2K-87" value="" style="line;strokeWidth=1;fillColor=none;align=left;verticalAlign=middle;spacingTop=-1;spacingLeft=3;spacingRight=3;rotatable=0;labelPosition=right;points=[];portConstraint=eastwest;strokeColor=inherit;" vertex="1" parent="1">
          <mxGeometry x="790" y="617" width="190" height="8" as="geometry" />
        </mxCell>
      </root>
    </mxGraphModel>
  </diagram>
</mxfile>
